<svg width="3937" height="2339" xmlns="http://www.w3.org/2000/svg" xmlns:xlink="http://www.w3.org/1999/xlink" overflow="hidden"><defs><clipPath id="clip0"><rect x="233" y="68" width="3937" height="2339"/></clipPath></defs><g clip-path="url(#clip0)" transform="translate(-233 -68)"><path d="M437 1484 1550 1484 1961 1895 1961 2306 437 2306Z" stroke="#E37A2D" stroke-width="10.3125" stroke-miterlimit="8" fill="none" fill-rule="evenodd"/><path d="M0 0 1113 0 1524 411.001 1524 822 0 822Z" stroke="#E37A2D" stroke-width="10.3125" stroke-miterlimit="8" fill="none" fill-rule="evenodd" transform="matrix(-1 0 0 1 3963 1484)"/><path d="M445.142 0 758.858 0 1204 445.142 1204 1524 1204 1524 0 1524 0 1524 0 445.142Z" stroke="#E37A2D" stroke-width="10.3125" stroke-miterlimit="8" fill="none" fill-rule="evenodd" transform="matrix(1 0 0 -1 1598 1693)"/><path d="M0 0 140.147 140.147" stroke="#E37A2D" stroke-width="27.5" stroke-miterlimit="8" fill="none" fill-rule="evenodd" transform="matrix(-1 0 0 1 1860.15 1516)"/><path d="M0 0 140.147 140.147" stroke="#E37A2D" stroke-width="27.5" stroke-miterlimit="8" fill="none" fill-rule="evenodd" transform="matrix(1.83697e-16 1 1 -1.83697e-16 2541 1512)"/><path d="M1961 2124 2439.87 2124" stroke="#E37A2D" stroke-width="27.5" stroke-miterlimit="8" fill="none" fill-rule="evenodd"/><text fill="#E37A2D" font-family="Times New Roman,Times New Roman_MSFontService,sans-serif" font-weight="400" font-size="165" transform="matrix(1 0 0 1 1980 1868)">MAGI</text><rect x="2835.5" y="169.5" width="1203" height="50.9999" stroke="#00B0F0" stroke-width="20.625" stroke-miterlimit="8" fill="none"/><rect x="2835.5" y="267.5" width="1203" height="51.0002" stroke="#00B0F0" stroke-width="20.625" stroke-miterlimit="8" fill="none"/><rect x="362.5" y="169.5" width="1203" height="50.9999" stroke="#00B0F0" stroke-width="20.625" stroke-miterlimit="8" fill="none"/><rect x="362.5" y="267.5" width="1203" height="51.0002" stroke="#00B0F0" stroke-width="20.625" stroke-miterlimit="8" fill="none"/><rect x="2835.5" y="717.5" width="1203" height="51.0002" stroke="#00B0F0" stroke-width="20.625" stroke-miterlimit="8" fill="none"/><rect x="2835.5" y="816.5" width="1203" height="51.0002" stroke="#00B0F0" stroke-width="20.625" stroke-miterlimit="8" fill="none"/><rect x="362.5" y="717.5" width="1203" height="51.0002" stroke="#00B0F0" stroke-width="20.625" stroke-miterlimit="8" fill="none"/><rect x="362.5" y="816.5" width="1203" height="51.0002" stroke="#00B0F0" stroke-width="20.625" stroke-miterlimit="8" fill="none"/><rect x="2957.5" y="1060.5" width="851" height="322" stroke="#FFFF00" stroke-width="6.875" stroke-miterlimit="8" fill="none"/><rect x="2985.5" y="1091.5" width="795" height="260" stroke="#FFFF00" stroke-width="6.875" stroke-miterlimit="8" fill="none"/><text fill="#E37A2D" font-family="Consolas,Consolas_MSFontService,sans-serif" font-weight="400" font-size="165" transform="matrix(1 0 0 1 604.124 1052)">CODE:473<tspan font-family="Arimo,Arimo_MSFontService,sans-serif" font-size="64" x="21.135" y="114">FILE MAGI_SYS</tspan><tspan font-family="Arimo,Arimo_MSFontService,sans-serif" font-size="64" x="21.135" y="191">EXTENTION:3720</tspan><tspan font-size="64" x="21.135" y="267">EX_MODE:OFF</tspan><tspan font-size="64" x="21.135" y="344">PRIORITY:AAB</tspan><tspan font-family="MS Gothic,MS Gothic_MSFontService,sans-serif" font-weight="700" font-size="280" x="-202.206" y="-426">中文字母</tspan><tspan font-family="MS Gothic,MS Gothic_MSFontService,sans-serif" font-weight="700" font-size="280" x="2274.18" y="-426">中文字母</tspan><tspan fill="#FFFF00" font-family="MS Gothic,MS Gothic_MSFontService,sans-serif" font-weight="700" font-size="165" x="2447.93" y="242">米</tspan><tspan fill="#FFFF00" font-family="Malgun Gothic,Malgun Gothic_MSFontService,sans-serif" font-weight="700" font-size="165" x="2613.5" y="242">尔佐特</tspan></text><rect x="280" y="82.0002" width="3840" height="2311" stroke="#E37A2D" stroke-width="27.5" stroke-miterlimit="8" fill="none"/></g></svg>